<svg xmlns="http://www.w3.org/2000/svg" version="1.1" xmlns:xlink="http://www.w3.org/1999/xlink" xmlns:svgjs="http://svgjs.dev/svgjs" width="128" height="128" viewBox="0 0 128 128"><g transform="matrix(0.8046875,0,0,0.8046875,12.41184074821259,12.814873242367177)"><svg viewBox="0 0 98 98" data-background-color="#000000" preserveAspectRatio="xMidYMid meet" height="127" width="128" xmlns="http://www.w3.org/2000/svg" xmlns:xlink="http://www.w3.org/1999/xlink"><g id="tight-bounds" transform="matrix(1,0,0,1,0.08387967645792571,0.08387967645792571)"><svg viewBox="0 0 97.83224064708415 97.83224064708415" height="97.83224064708415" width="97.83224064708415"><rect width="97.83224064708415" height="97.83224064708415" fill="url(#5031833d-ca65-426a-bc99-369e9a6ddd8c)" mask="url(#ce80f0b9-e7cb-4988-b240-93bf92cf9fd1)" data-fill-palette-color="tertiary"></rect><g><svg></svg></g><g><svg viewBox="0 0 97.83224064708415 97.83224064708415" height="97.83224064708415" width="97.83224064708415"><g><path d="M0 48.916c0-27.016 21.9-48.916 48.916-48.916 27.016 0 48.916 21.9 48.916 48.916 0 27.016-21.9 48.916-48.916 48.916-27.016 0-48.916-21.9-48.916-48.916zM48.916 93.626c24.693 0 44.71-20.017 44.71-44.71 0-24.693-20.017-44.71-44.71-44.71-24.693 0-44.71 20.017-44.71 44.71 0 24.693 20.017 44.71 44.71 44.71z" data-fill-palette-color="tertiary" fill="url(#5031833d-ca65-426a-bc99-369e9a6ddd8c)" stroke="transparent"></path><ellipse rx="46.95947551060039" ry="46.95947551060039" cx="48.916120323542074" cy="48.916120323542074" fill="url(#5031833d-ca65-426a-bc99-369e9a6ddd8c)" stroke="transparent" stroke-width="0" fill-opacity="1" data-fill-palette-color="tertiary"></ellipse></g><g transform="matrix(1,0,0,1,23.47539391502934,25.595371416318375)"><svg viewBox="0 0 50.88145281702547 46.6414978144474" height="46.6414978144474" width="50.88145281702547"><g><svg viewBox="0 0 50.88145281702547 46.6414978144474" height="46.6414978144474" width="50.88145281702547"><g><svg viewBox="0 0 50.88145281702547 46.6414978144474" height="46.6414978144474" width="50.88145281702547"><g id="textblocktransform"><svg viewBox="0 0 50.88145281702547 46.6414978144474" height="46.6414978144474" width="50.88145281702547" id="textblock"><g><svg viewBox="0 0 50.88145281702547 46.6414978144474" height="46.6414978144474" width="50.88145281702547"><g><svg viewBox="0 0 50.88145281702547 46.6414978144474" height="46.6414978144474" width="50.88145281702547"><g><svg xmlns="http://www.w3.org/2000/svg" xmlns:xlink="http://www.w3.org/1999/xlink" version="1.1" x="0" y="0" viewBox="-0.00000676530444478766 21.333 512.0000067653044 469.335010586615" enable-background="new 0 0 512 512" xml:space="preserve" id="icon-0" width="50.88145281702547" height="46.6414978144474" class="icon-icon-0" data-fill-palette-color="quaternary"><g fill="#000000" data-fill-palette-color="quaternary"><path d="M501.344 106.662H373.342V31.989C373.342 26.114 368.561 21.333 362.67 21.333H149.338C143.447 21.333 138.666 26.114 138.666 31.989V106.662H10.665C4.773 106.662 0 111.443 0 117.333V287.992A10.66 10.66 0 0 0 10.665 298.664S14.329 299.492 21.337 300.82V479.996A10.66 10.66 0 0 0 32.002 490.668H480A10.657 10.657 0 0 0 490.672 479.996V300.82C497.688 299.492 501.344 298.664 501.344 298.664 507.235 298.664 512 293.898 512 287.992V117.333C512 111.443 507.234 106.662 501.344 106.662M351.998 106.662H330.669V74.662C330.669 68.771 325.903 63.99 319.997 63.99H309.341V42.661H351.998zM266.668 63.989V42.661H287.997V63.99H266.668zM245.34 63.989H224.004V42.661H245.34zM309.341 85.333V106.661H202.667V85.333zM160.003 42.661H202.668V63.99H192.003C186.112 63.99 181.339 68.771 181.339 74.662V106.662H160.003zM469.344 469.34H42.665V304.508C76.392 309.883 135.439 317.32 213.339 319.43V351.994A10.66 10.66 0 0 0 224.004 362.666H287.997A10.657 10.657 0 0 0 298.669 351.994V319.43C376.561 317.321 435.624 309.883 469.344 304.508zM234.668 341.338V277.336H277.341V341.338zM490.672 279.086C481.281 280.945 461.062 284.617 431.89 288.274 401.265 292.086 355.436 296.508 298.669 298.071V266.665C298.669 260.774 293.903 255.993 287.997 255.993H224.004C218.113 255.993 213.339 260.775 213.339 266.665V298.071C156.573 296.509 110.744 292.087 80.118 288.274 50.946 284.618 30.719 280.946 21.336 279.086V127.99H490.671V279.086z" fill="#000000" data-fill-palette-color="quaternary"></path><path d="M256.004 287.992C250.113 287.992 245.34 292.773 245.34 298.664V319.992C245.34 325.898 250.113 330.664 256.004 330.664S266.668 325.898 266.668 319.992V298.664C266.668 292.773 261.895 287.992 256.004 287.992" fill="#000000" data-fill-palette-color="quaternary"></path></g></svg></g></svg></g></svg></g></svg></g></svg></g><g></g></svg></g></svg></g></svg></g><defs></defs><mask id="ce80f0b9-e7cb-4988-b240-93bf92cf9fd1"><g id="SvgjsG2335"><svg viewBox="0 0 97.83224064708415 97.83224064708415" height="97.83224064708415" width="97.83224064708415"><g><svg></svg></g><g><svg viewBox="0 0 97.83224064708415 97.83224064708415" height="97.83224064708415" width="97.83224064708415"><g><path d="M0 48.916c0-27.016 21.9-48.916 48.916-48.916 27.016 0 48.916 21.9 48.916 48.916 0 27.016-21.9 48.916-48.916 48.916-27.016 0-48.916-21.9-48.916-48.916zM48.916 93.626c24.693 0 44.71-20.017 44.71-44.71 0-24.693-20.017-44.71-44.71-44.71-24.693 0-44.71 20.017-44.71 44.71 0 24.693 20.017 44.71 44.71 44.71z" fill="white" stroke="transparent"></path><ellipse rx="46.95947551060039" ry="46.95947551060039" cx="48.916120323542074" cy="48.916120323542074" fill="white" stroke="transparent" stroke-width="0" fill-opacity="1"></ellipse></g><g transform="matrix(1,0,0,1,23.47539391502934,25.595371416318375)"><svg viewBox="0 0 50.88145281702547 46.6414978144474" height="46.6414978144474" width="50.88145281702547"><g><svg viewBox="0 0 50.88145281702547 46.6414978144474" height="46.6414978144474" width="50.88145281702547"><g><svg viewBox="0 0 50.88145281702547 46.6414978144474" height="46.6414978144474" width="50.88145281702547"><g id="SvgjsG2334"><svg viewBox="0 0 50.88145281702547 46.6414978144474" height="46.6414978144474" width="50.88145281702547" id="SvgjsSvg2333"><g><svg viewBox="0 0 50.88145281702547 46.6414978144474" height="46.6414978144474" width="50.88145281702547"><g><svg viewBox="0 0 50.88145281702547 46.6414978144474" height="46.6414978144474" width="50.88145281702547"><g><svg xmlns="http://www.w3.org/2000/svg" xmlns:xlink="http://www.w3.org/1999/xlink" version="1.1" x="0" y="0" viewBox="-0.00000676530444478766 21.333 512.0000067653044 469.335010586615" enable-background="new 0 0 512 512" xml:space="preserve" id="SvgjsSvg2332" width="50.88145281702547" height="46.6414978144474" class="icon-icon-0" data-fill-palette-color="quaternary"><g fill="black"><path d="M501.344 106.662H373.342V31.989C373.342 26.114 368.561 21.333 362.67 21.333H149.338C143.447 21.333 138.666 26.114 138.666 31.989V106.662H10.665C4.773 106.662 0 111.443 0 117.333V287.992A10.66 10.66 0 0 0 10.665 298.664S14.329 299.492 21.337 300.82V479.996A10.66 10.66 0 0 0 32.002 490.668H480A10.657 10.657 0 0 0 490.672 479.996V300.82C497.688 299.492 501.344 298.664 501.344 298.664 507.235 298.664 512 293.898 512 287.992V117.333C512 111.443 507.234 106.662 501.344 106.662M351.998 106.662H330.669V74.662C330.669 68.771 325.903 63.99 319.997 63.99H309.341V42.661H351.998zM266.668 63.989V42.661H287.997V63.99H266.668zM245.34 63.989H224.004V42.661H245.34zM309.341 85.333V106.661H202.667V85.333zM160.003 42.661H202.668V63.99H192.003C186.112 63.99 181.339 68.771 181.339 74.662V106.662H160.003zM469.344 469.34H42.665V304.508C76.392 309.883 135.439 317.32 213.339 319.43V351.994A10.66 10.66 0 0 0 224.004 362.666H287.997A10.657 10.657 0 0 0 298.669 351.994V319.43C376.561 317.321 435.624 309.883 469.344 304.508zM234.668 341.338V277.336H277.341V341.338zM490.672 279.086C481.281 280.945 461.062 284.617 431.89 288.274 401.265 292.086 355.436 296.508 298.669 298.071V266.665C298.669 260.774 293.903 255.993 287.997 255.993H224.004C218.113 255.993 213.339 260.775 213.339 266.665V298.071C156.573 296.509 110.744 292.087 80.118 288.274 50.946 284.618 30.719 280.946 21.336 279.086V127.99H490.671V279.086z" fill="black"></path><path d="M256.004 287.992C250.113 287.992 245.34 292.773 245.34 298.664V319.992C245.34 325.898 250.113 330.664 256.004 330.664S266.668 325.898 266.668 319.992V298.664C266.668 292.773 261.895 287.992 256.004 287.992" fill="black"></path></g></svg></g></svg></g></svg></g></svg></g></svg></g><g></g></svg></g></svg></g></svg></g><defs><mask></mask></defs></svg><rect width="97.83224064708415" height="97.83224064708415" fill="black" stroke="none" visibility="hidden"></rect></g></mask><linearGradient x1="0" x2="1" y1="0.578" y2="0.595" id="5031833d-ca65-426a-bc99-369e9a6ddd8c"><stop stop-color="#6ee2f5" offset="0"></stop><stop stop-color="#6454f0" offset="1"></stop></linearGradient></svg><rect width="97.83224064708415" height="97.83224064708415" fill="none" stroke="none" visibility="hidden"></rect></g></svg></g></svg>